<?xml version="1.0" encoding="utf-8"?>
<!-- Generator: Adobe Illustrator 19.1.0, SVG Export Plug-In . SVG Version: 6.00 Build 0)  -->
<svg version="1.1" id="Layer_1" xmlns:sketch="http://www.bohemiancoding.com/sketch/ns"
	 xmlns="http://www.w3.org/2000/svg" xmlns:xlink="http://www.w3.org/1999/xlink" x="0px" y="0px" viewBox="-351 286 89 41"
	 style="enable-background:new -351 286 89 41;" xml:space="preserve">
<style type="text/css">
	.st0{fill:#FFFFFF;}
</style>
<title>Untitled</title>
<desc>Created with Sketch.</desc>
<g>
	<path class="st0" d="M-325.2,292.4c0.3,0.1,0.3,0.2,0.3,0.3c0,0.2,0.8,1.1,0.8,4.7l-0.1,4.7c0,2.7-0.7,4.6-0.7,5
		c0,0.4-0.1,0.6-1.4,0.8c0,0-0.1,0.1-0.1,0.1c0,0.2,0,0.8,0.1,0.8c2.1-0.1,4.2-0.2,6.4-0.2c2.2,0,4.1,0,4.9,0.1c0.9,0,1.1,0,1.3,0
		c0.1,0,0.2-0.1,0.3-0.2c0.3-0.8,0.8-2.5,0.8-3.7c0-0.1,0-0.2-0.1-0.2c-0.3,0-0.5-0.1-0.6,0c-0.8,2.8-2.3,3.1-5.4,3.1
		c-2.2,0-3.1-0.1-3.5-0.6c-0.3-0.4-0.3-1.1-0.3-3.1c0-2.2,0.2-3.1,0.2-3.3c0.1-0.1,0.2-0.1,0.3-0.2c0.2,0,0.4-0.1,1.8-0.1
		c1.4,0,2.2,0,2.8,0.1c1.1,0.1,1.4,0.3,1.5,1c0.1,0.3,0.2,0.7,0.3,1c0.1,0.1,0.1,0.2,0.2,0.2c0.2,0,0.4,0,0.6-0.1
		c-0.1-0.8-0.2-1.5-0.2-2.4c0-0.8,0.2-2.1,0.2-2.8c-0.1,0-0.7,0-0.9,0.1c-0.3,1.6-0.5,1.7-2.1,1.8c-0.7,0.1-1.6,0.1-2.8,0.1h-1.7
		c-0.2,0-0.3-0.2-0.3-0.4c0-1.9-0.1-3.7-0.1-5.6c0-0.6,0.1-0.9,0.4-1c0.3-0.1,1.2-0.1,2.7-0.1h1.8c2.1,0,2.3,1,2.6,2.9
		c0,0.2,0.1,0.2,0.8,0.2c0-0.7,0-2.2,0.2-3.4c0.1-0.5,0.1-0.5-0.1-0.6c-0.1-0.1-0.3-0.1-0.6-0.1c-1.3,0-3.2,0.5-4.8,0.5h-2.7
		c-1.6,0-1.9,0-3.4-0.4h-0.9c-0.1,0-0.1,0-0.1,0.1l-0.1,0.6c0,0.1,0,0.1,0,0.1C-326,292.2-325.4,292.2-325.2,292.4z"/>
	<path class="st0" d="M-294.8,308.7c2.1-0.1,4.2-0.2,6.4-0.2c2.2,0,4.1,0,4.9,0.1c0.9,0,1.1,0,1.3,0c0.1,0,0.2-0.1,0.3-0.2
		c0.3-0.8,0.8-2.5,0.8-3.7c0-0.1,0-0.2-0.1-0.2c-0.3,0-0.5-0.1-0.6,0c-0.8,2.8-2.3,3.1-5.4,3.1c-2.2,0-3.1-0.1-3.5-0.6
		c-0.3-0.4-0.3-1.1-0.3-3.1c0-2.2,0.2-3.1,0.2-3.3c0.1-0.1,0.2-0.1,0.3-0.2c0.2,0,0.4-0.1,1.8-0.1c1.4,0,2.2,0,2.8,0.1
		c1.1,0.1,1.4,0.3,1.6,1c0.1,0.3,0.2,0.7,0.3,1c0.1,0.1,0.1,0.2,0.2,0.2c0.2,0,0.4,0,0.6-0.1c-0.1-0.8-0.2-1.5-0.2-2.4
		c0-0.8,0.2-2.1,0.2-2.8c-0.1,0-0.7,0-0.9,0.1c-0.3,1.6-0.5,1.7-2.1,1.8c-0.7,0.1-1.6,0.1-2.8,0.1h-1.7c-0.2,0-0.3-0.2-0.3-0.4
		c0-1.9-0.1-3.7-0.1-5.6c0-0.6,0.1-0.9,0.4-1c0.3-0.1,1.2-0.1,2.7-0.1h1.8c2.1,0,2.3,1,2.6,2.9c0,0.2,0.1,0.2,0.8,0.2
		c0-0.7,0-2.2,0.2-3.4c0.1-0.5,0.1-0.5-0.1-0.6c-0.1-0.1-0.3-0.1-0.6-0.1c-1.3,0-3.2,0.5-4.8,0.5h-2.7c-1.6,0-1.9,0-3.4-0.4h-0.9
		c-0.1,0-0.1,0-0.1,0.1l-0.1,0.6c0,0.1,0,0.1,0,0.1c0.6,0.2,1.1,0.2,1.4,0.3c0.3,0.1,0.3,0.2,0.3,0.3c0,0.2,0.8,1.1,0.8,4.7
		l-0.1,4.7c0,2.7-0.7,4.6-0.7,5c0,0.4-0.1,0.6-1.4,0.8c-1.9-0.5-2.6-1.5-3.7-2.6c-1.5-1.5-2.5-4.7-2.6-5.3c-0.1-0.2,0-0.3,0.2-0.4
		c1-0.6,2.8-1.8,2.8-3.9c0-1.3-0.6-2.6-1.9-3.5c-1.4-1-3-1.2-4.6-1.2c-0.7,0-2.2,0.3-3.5,0.4c-1.1,0.1-1.6-0.2-2.9-0.1
		c-0.1,0.1-0.1,0.1-0.1,0.2l0.1,0.6c1.7,0.4,1.8,0.6,1.9,1.4c0,1.3,0.1,3.2,0.1,4.7v3.1c0,3.2-0.1,5.4-0.3,5.8
		c-0.2,0.4-1,0.5-1.5,0.6c0,0.2,0,0.6,0.2,0.8c0,0.1,0.1,0.1,0.4,0.1c0.3,0,1.4-0.5,2.3-0.5c1.1,0,2.7,0.4,3,0.4
		c0.3,0,0.3,0,0.4-0.1c0.1-0.1,0.2-0.6,0.2-0.7c-0.6-0.2-1.8-0.3-2.1-0.6c-0.1-0.1-0.2-0.3-0.3-0.7c-0.1-1.5-0.1-3.1-0.1-5.1
		c0-0.2,0.2-0.3,0.3-0.4c0.2-0.1,0.5-0.1,1.3-0.1c1.7,0,1.9,0.2,2.6,1.5c0.9,1.7,2.8,3.7,3.9,4.8c0,0,1,1,1.6,1.4
		C-296.8,308.9-295.3,308.8-294.8,308.7z M-306,300c-0.4,0-0.7,0-0.9-0.1c-0.1-0.1-0.2-0.2-0.2-2.7c0-2.4,0.1-3.8,0.2-4.6
		c0.1-0.2,0.1-0.4,0.4-0.5c0.4-0.2,0.9-0.3,1.8-0.3c2.4,0,4,1.8,4,3.9v0c0,1.1-0.5,2.2-1.1,2.9C-302.6,299.7-303.9,300-306,300z"/>
	<path class="st0" d="M-280.3,308.5c0.1,0,1.5-0.3,1.9-0.3c0.6,0,1.1,0.3,2.5,0.3c0.1-0.1,0.2-0.6,0.2-0.7c-1.3-0.4-1.5-0.6-1.5-1.2
		c0-0.7,0.9-3,1.1-3.6c0.2-0.5,0.3-0.5,0.7-0.6c1.6-0.1,3.8-0.1,5.8-0.1c0.2,0,0.4,0.2,0.5,0.4c0.3,0.9,1.2,3,1.3,3.5
		c0.3,1,0.1,1.2-1.2,1.6c0,0.1,0.1,0.5,0.1,0.7c0,0.1,0.1,0.1,0.2,0.1c0.2,0,1.4-0.4,2.3-0.4c0.9,0,1-0.1,3.2,0.4
		c0.1,0,0.3-0.8,0.2-0.8c-1.5-0.3-1.9-0.8-2.5-2c-0.3-0.8-2.5-5.9-3.4-8.2c-0.9-2.5-1.5-3.8-2.3-6.4c-0.1-0.3-0.1-0.4-0.3-0.4h0
		c-0.2,0-0.7,0.2-0.8,0.2c-0.1,0.1-0.1,0.1-0.2,0.2c-0.2,0.4-0.3,0.9-0.6,1.6c-1.5,3.7-4.6,11.2-5.3,12.6c-0.7,1.4-1,1.9-2.1,2.3
		c-0.1,0.1,0,0.6,0.1,0.7C-280.5,308.5-280.5,308.5-280.3,308.5z M-272.7,294.5c0.1-0.2,0.3-0.2,0.3-0.1c0.8,2.1,1.4,3.7,2.4,6.5
		c0.1,0.1,0,0.4-0.2,0.4c-0.7,0-1.5,0.1-2.7,0.1c-1.2,0-1.8-0.1-1.9-0.1h0c-0.3,0-0.5-0.2-0.5-0.3
		C-274.3,298.2-274,297.4-272.7,294.5z"/>
	<path class="st0" d="M-309,321.8L-309,321.8c-0.1,0-0.1,0-0.1,0.1c-0.1,0.6-0.3,1-0.5,1.3c-0.6,1-1.9,1-3.2,1c-0.9,0-1.5,0-1.8-0.2
		c-0.2-0.1-0.4-0.2-0.4-0.5c0-0.4,0-1-0.1-4l0-2.4c0-1.6,0-2.9,0.1-3.4c0.1-0.8,0.6-0.9,1.7-1c0-0.2-0.1-0.5-0.1-0.6
		c-1,0-1.5,0.4-2.5,0.4c-0.6,0-1.8-0.3-2.4-0.3c0,0-0.1,0-0.1,0.1l-0.2,0.4c0,0.1,0,0.2,0.1,0.2c1.4,0,1.5,0.1,1.6,0.5
		c0.1,0.4,0.1,1.5,0.1,3.1v4c0,2-0.1,2.7-0.1,3c-0.2,0.6-0.6,0.8-1.6,0.9c0,0.1,0.1,0.5,0.2,0.6c0,0,0.2,0,0.4,0
		c0.3,0,1.2-0.1,2.3-0.1c3.3,0,4.2,0.1,5.1,0.1c0.8,0,1,0,1.2,0c0.2,0,0.3-0.1,0.3-0.3c0.1-0.8,0.4-1.7,0.6-2.5c0-0.1,0-0.1-0.1-0.2
		C-308.5,321.9-308.9,321.8-309,321.8z"/>
	<path class="st0" d="M-298.2,321.8L-298.2,321.8c-0.1,0-0.1,0-0.1,0.1c-0.1,0.6-0.3,1-0.5,1.3c-0.6,1-1.9,1-3.2,1
		c-0.9,0-1.5,0-1.8-0.2c-0.2-0.1-0.3-0.2-0.4-0.5c0-0.4,0-1-0.1-4l0-2.4c0-1.6,0-2.9,0.1-3.4c0.1-0.8,0.6-0.9,1.7-1
		c0-0.2-0.1-0.5-0.1-0.6c-1,0-1.4,0.4-2.4,0.4c-0.6,0-1.8-0.3-2.4-0.3c0,0-0.1,0-0.1,0.1l-0.2,0.4c0,0.1,0,0.2,0.1,0.2
		c1.4,0,1.5,0.1,1.6,0.5c0.1,0.4,0.1,1.5,0.1,3.1v4c0,2-0.1,2.7-0.1,3c-0.2,0.6-0.6,0.8-1.6,0.9c0,0.1,0.1,0.5,0.2,0.6
		c0,0,0.2,0,0.4,0c0.3,0,1.2-0.1,2.3-0.1c3.3,0,4.2,0.1,5,0.1c0.8,0,1,0,1.2,0c0.2,0,0.3-0.1,0.3-0.3c0.1-0.8,0.3-1.7,0.6-2.5
		c0-0.1,0-0.1-0.1-0.2C-297.8,321.9-298.1,321.8-298.2,321.8z"/>
	<path class="st0" d="M-275.3,318.7c-0.8,0-1.6-0.3-2.7-0.3c-0.1,0-0.1,0.1-0.1,0.2c0,0.1,0,0.3,0.1,0.4c0,0.1,0.1,0.1,0.2,0.1
		c0.2,0,1.1,0.1,1.2,0.2c0.7,0.1,0.7,0.4,0.7,2.2c0,1.4-0.2,2.3-0.5,2.5c-0.3,0.2-1.1,0.5-1.6,0.5c-1,0-3.1-0.2-4.6-1.7
		c-1.3-1.3-1.7-2.9-1.7-4.2c0-2.4,1.1-4,2-4.8c1.1-1,2.2-1.2,3.3-1.2c2.2,0,3.4,1.1,4,2.6c0.1,0.1,0.1,0.2,0.2,0.2h0.3
		c0.1,0,0.2,0,0.2-0.1c0-0.1,0-0.2,0-0.4c-0.1-0.5-0.2-1.5-0.3-2.7c0-0.1-0.1-0.1-0.1-0.1l-0.4,0c-0.2,0-0.2,0-0.2,0.1l-0.2,0.3
		c0,0.1-0.1,0-0.2,0c-0.7-0.2-1.9-0.4-2.5-0.4c-0.6,0-1.9,0.1-3,0.4c-1.3,0.4-2.3,0.8-3.1,1.6c-1.2,1.1-2,2.6-2,4.6v0
		c0,2,0.8,3.6,1.9,4.7c1.4,1.3,3.2,1.9,5.8,1.9c0.8,0,1.4-0.1,2.1-0.1c0.8-0.1,1.1-0.1,1.5-0.1c0.1,0,0.4,0,0.5-0.2
		c0.2-0.2,0.3-0.3,0.3-0.7c0-3.3,0.1-4.7,0.1-4.8c0.3,0,0.5-0.1,0.8-0.1c0-0.1,0.1-0.7,0-0.8C-273.5,318.4-274.3,318.7-275.3,318.7z
		"/>
	<path class="st0" d="M-287.2,321.7c-0.6,2.1-1.7,2.3-4,2.3c-1.6,0-2.3-0.1-2.6-0.5c-0.2-0.3-0.2-0.8-0.2-2.3c0-1.6,0.1-2.3,0.2-2.4
		c0.1-0.1,0.1-0.1,0.2-0.1c0.1,0,0.3,0,1.3,0c1,0,1.6,0,2.1,0c0.8,0.1,1,0.2,1.1,0.8c0.1,0.2,0.2,0.5,0.2,0.8c0,0.1,0.1,0.1,0.2,0.1
		c0.1,0,0.3,0,0.4-0.1c-0.1-0.6-0.1-1.1-0.1-1.8c0-0.6,0.1-1.5,0.2-2.1c-0.1,0-0.5,0-0.6,0.1c-0.3,1.2-0.4,1.2-1.5,1.3
		c-0.5,0-1.1,0.1-2,0.1h-1.2c-0.1,0-0.3-0.1-0.3-0.3c0-1.4,0-2.7,0-4.1c0-0.4,0-0.6,0.3-0.7c0.2-0.1,0.9-0.1,2-0.1h1.3
		c1.5,0,1.7,0.7,1.9,2.1c0,0.1,0.1,0.2,0.6,0.2c0-0.5,0-1.6,0.2-2.5c0.1-0.4,0.1-0.4-0.1-0.5c-0.1-0.1-0.2-0.1-0.5-0.1
		c-1,0-2.3,0.3-3.5,0.3h-2c-1.2,0-1.4,0-2.5-0.3h-0.7c-0.1,0-0.1,0-0.1,0.1l0,0.4c0,0.1,0,0.1,0,0.1c0.5,0.1,0.8,0.2,1,0.3
		c0.2,0,0.2,0.1,0.3,0.3c0,0.1,0.6,0.8,0.6,3.4l-0.1,3.4c0,2-0.5,3.3-0.5,3.6c0,0.3-0.1,0.4-1,0.6c0,0-0.1,0-0.1,0.1
		c0,0.2,0,0.6,0,0.6c1.6-0.1,3.1-0.1,4.7-0.1c1.6,0,3,0,3.6,0c0.6,0,0.8,0,0.9,0c0.1,0,0.2,0,0.3-0.2c0.3-0.6,0.6-1.8,0.6-2.7
		c0-0.1,0-0.1-0.1-0.2C-286.9,321.7-287.1,321.7-287.2,321.7z"/>
	<path class="st0" d="M-262.6,321.6c-0.2,0-0.4,0-0.5,0c-0.6,2.1-1.7,2.3-4,2.3c-1.6,0-2.3-0.1-2.6-0.5c-0.2-0.3-0.2-0.8-0.2-2.3
		c0-1.6,0.1-2.3,0.2-2.4c0.1-0.1,0.1-0.1,0.2-0.1c0.1,0,0.3,0,1.3,0c1,0,1.6,0,2.1,0c0.8,0.1,1,0.2,1.1,0.8c0.1,0.2,0.2,0.5,0.2,0.8
		c0,0.1,0.1,0.1,0.2,0.1c0.1,0,0.3,0,0.4-0.1c-0.1-0.6-0.1-1.1-0.1-1.8c0-0.6,0.1-1.5,0.2-2.1c-0.1,0-0.5,0-0.6,0.1
		c-0.3,1.2-0.3,1.2-1.5,1.3c-0.5,0-1.1,0.1-2,0.1h-1.2c-0.1,0-0.3-0.1-0.3-0.3c0-1.4,0-2.7,0-4.1c0-0.5,0-0.6,0.3-0.7
		c0.2-0.1,0.9-0.1,2-0.1h1.3c1.5,0,1.7,0.7,1.9,2.1c0,0.1,0.1,0.2,0.6,0.2c0-0.5,0-1.6,0.2-2.5c0.1-0.4,0.1-0.4-0.1-0.5
		c-0.1-0.1-0.2-0.1-0.5-0.1c-1,0-2.3,0.3-3.5,0.3h-2c-1.2,0-1.4,0-2.5-0.3h-0.7c-0.1,0-0.1,0-0.1,0.1l0,0.4c0,0.1,0,0.1,0,0.1
		c0.5,0.1,0.8,0.2,1,0.3c0.2,0,0.2,0.1,0.3,0.3c0,0.1,0.6,0.8,0.6,3.4l-0.1,3.4c0,2-0.5,3.3-0.5,3.6c0,0.3-0.1,0.4-1,0.6
		c0,0-0.1,0-0.1,0.1c0,0.2,0,0.6,0,0.6c1.6-0.1,3.1-0.1,4.7-0.1c1.6,0,3,0,3.6,0c0.6,0,0.8,0,0.9,0c0.1,0,0.2,0,0.3-0.2
		c0.3-0.6,0.6-1.8,0.6-2.7C-262.6,321.6-262.6,321.6-262.6,321.6z"/>
	<path class="st0" d="M-333.4,321.9c-0.1-0.1-0.2-0.1-0.2,0.1c-0.2,0.6-0.6,1.3-1.4,2.1c-0.9,0.9-2.1,1.7-4.2,1.7
		c-6.5,0-8.2-5.4-8.2-8.5c0-2.9,0.9-5.1,2-6.5c0.9-1,1.9-1.7,3-2.2c0.2-0.1,0.5-0.1,0.7-0.2c1.8-0.5,4.6,0.3,5.5,0.5
		c0.1,0.1,0.2,0.1,0.3,0.2c0.6,0.4,0.7,0.7,0.9,1.2c0.2,0.6,0.4,1.4,0.5,1.8c0.1,0.2,0.1,0.2,0.5,0.1c0.2,0,0.4-0.1,0.4-0.1
		c-0.1-1.1,0-2.3,0.2-3.4c0.4-0.1,0.8-0.2,1.2-0.3c2.9-1.1,5.1-3,5.1-6.2c0-3.7-2.8-5.6-5.4-6.1c-0.2,0-0.3-0.3-0.1-0.4
		c0.3-0.2,1-0.5,1.8-1.1c1.4-1,1.8-2.3,1.8-3.8c0-2.1-1.7-3.5-2.9-4c-1.8-0.7-3.4-0.6-4.9-0.6c-1.5,0-3.3,0.9-5.9,0.3
		c-1.1-0.3-1.7-0.3-2-0.3l-0.3,0.9c2.1,0.7,2.2,0.8,2.3,1.7c0.1,1.1,0.5,3.4,0.5,5.9v5.4c0,1.2-0.1,2.9-0.6,5.4
		c-0.3,1.2-0.1,1.5-1.1,1.9c-0.1,0.1-0.7,0.5-1.3,0.9c-1,0.4-2,1-2.8,1.9c-2,2.2-2.5,4.8-2.5,6.8v0c0,4.6,3.1,9.8,10.9,9.8
		c1.5,0,3.7-0.5,4.6-0.5c0.2,0,0.3-0.1,0.5-0.3c0.4-0.6,1.1-2.2,1.4-3.5C-332.9,322.3-333.1,322.1-333.4,321.9z M-339.3,287.8
		c0-0.3,0.1-0.4,0.5-0.5c0.6-0.2,1.4-0.3,1.7-0.3c1.8,0,2.9,0.5,3.6,1.3c0.8,0.8,1.4,1.7,1.4,3.2v0c0,1.6-0.7,3.1-1.9,3.8
		c-0.7,0.4-1.9,0.5-2.4,0.5c-0.5,0-1.3,0-1.9-0.1c-0.9-0.1-1-0.2-1.2-1c0-0.5-0.1-2.1-0.1-3.9C-339.5,288.9-339.4,288.1-339.3,287.8
		z M-339.4,297.3c0.4-0.4,1.6-0.5,2.8-0.5c1.7,0,3.2,0.1,4.5,1.3c1.3,1.2,1.7,2.6,1.7,4.1c0,3.1-2.1,4.8-4.8,5.2
		c-0.8-0.3-2.1-0.5-3.3-0.5c-0.1,0-0.2,0-0.3,0c-0.1-0.1-0.1-0.1-0.2-0.2c-0.8-0.8-0.8-0.9-0.8-7.4
		C-339.7,297.8-339.5,297.5-339.4,297.3z"/>
	<path class="st0" d="M-322.2,313L-322.2,313c-1.5-0.9-3.3-1.3-4.9-0.9c-2,0.4-3.5,1.5-4.3,2.9c-0.8,1.4-1.2,3.2-0.9,4.6
		c0.4,1.9,1.8,3.9,3.5,5c0.9,0.5,2.6,1.1,4.5,0.7c1.4-0.3,3.3-1.2,4.6-3.3C-317.9,318.9-319.2,314.9-322.2,313z M-321.9,321.7
		c-1.9,3.1-4.6,3.5-6.3,2.4c-1.1-0.7-1.9-1.7-2.3-3.5c-0.3-1.5-0.1-3.2,0.9-4.7c0.6-1,1.8-2.4,3.3-2.9c1.4-0.4,2.4-0.2,3.2,0.3l0,0
		c1.4,0.8,2,2.1,2.3,3.2C-320.5,318.5-321,320.2-321.9,321.7z"/>
</g>
</svg>
